<?xml version="1.0" standalone="no"?>
<!DOCTYPE svg PUBLIC "-//W3C//DTD SVG 20010904//EN"
 "http://www.w3.org/TR/2001/REC-SVG-20010904/DTD/svg10.dtd">
<svg version="1.0" xmlns="http://www.w3.org/2000/svg"
 width="528.000000pt" height="473.000000pt" viewBox="0 0 528.000000 473.000000"
 preserveAspectRatio="xMidYMid meet">

<g transform="translate(0.000000,473.000000) scale(0.100000,-0.100000)"
fill="#000000" stroke="none">
<path d="M2480 4450 c-737 -56 -1394 -502 -1720 -1165 -397 -809 -233 -1776
411 -2413 557 -553 1381 -744 2129 -496 684 227 1200 786 1374 1489 46 186 51
238 51 500 0 221 -3 263 -23 365 -47 235 -101 391 -201 587 -333 652 -975
1077 -1711 1133 -146 11 -166 11 -310 0z m-853 -323 c0 -6 11 -30 25 -52 30
-48 53 -117 68 -202 19 -108 -15 -246 -87 -355 -72 -110 -185 -191 -313 -224
-70 -18 -232 -16 -280 4 -23 10 -58 22 -70 24 -3 1 -25 14 -49 29 -24 16 -48
26 -52 23 -16 -10 -9 8 28 70 150 249 404 504 658 659 67 41 72 42 72 24z
m1254 -1149 c182 -74 324 -225 389 -414 25 -71 26 -97 4 -92 -11 2 -22 22 -30
57 -51 197 -235 379 -441 437 -46 12 -60 21 -56 31 8 19 59 12 134 -19z m-106
-60 c173 -37 339 -185 404 -361 29 -76 39 -235 21 -320 -30 -148 -164 -319
-300 -385 -234 -113 -482 -73 -660 107 -121 121 -170 238 -170 401 0 199 87
364 250 475 138 94 284 120 455 83z m-758 -555 c0 -88 5 -123 27 -189 60 -188
203 -336 386 -401 62 -22 97 -28 198 -31 95 -3 122 -7 122 -18 0 -21 -42 -27
-143 -22 -226 13 -419 131 -539 329 -56 92 -79 175 -85 301 -6 113 -2 138 20
138 10 0 14 -24 14 -107z m2251 -956 c41 -15 88 -35 106 -47 18 -11 37 -16 41
-12 17 14 -58 -114 -103 -177 -130 -183 -311 -364 -482 -480 -104 -71 -186
-119 -177 -103 4 6 -6 35 -22 64 -47 85 -63 159 -58 273 5 127 30 216 75 263
6 7 12 17 12 21 0 12 100 113 135 136 49 32 71 43 137 64 35 11 70 22 78 25
38 14 187 -2 258 -27z"/>
<path d="M2600 2400 c-24 -24 -25 -38 -4 -68 29 -42 104 -17 104 35 0 20 -38
53 -60 53 -11 0 -29 -9 -40 -20z"/>
</g>
</svg>
